<svg xmlns="http://www.w3.org/2000/svg" viewBox="0 0 1400 800" role="img" aria-label="Dashboard inspiration">
  <defs>
    <linearGradient id="bg" x1="0%" y1="0%" x2="100%" y2="100%">
      <stop offset="0%" stop-color="#0f1024"/>
      <stop offset="50%" stop-color="#161034"/>
      <stop offset="100%" stop-color="#0b0d1f"/>
    </linearGradient>
    <linearGradient id="bar" x1="0" y1="0" x2="1" y2="0">
      <stop offset="0" stop-color="#a855f7"/>
      <stop offset="1" stop-color="#22d3ee"/>
    </linearGradient>
    <linearGradient id="line" x1="0" y1="0" x2="1" y2="0">
      <stop offset="0" stop-color="#6b21a8"/>
      <stop offset="1" stop-color="#38bdf8"/>
    </linearGradient>
    <filter id="glow" x="-15%" y="-15%" width="130%" height="130%">
      <feGaussianBlur stdDeviation="10" result="b"/>
      <feMerge><feMergeNode in="b"/><feMergeNode in="SourceGraphic"/></feMerge>
    </filter>
  </defs>
  <rect width="1400" height="800" fill="url(#bg)"/>
  <rect x="60" y="80" width="1280" height="560" rx="26" fill="#0c0f1f" opacity="0.7" stroke="#1e293b"/>
  <g transform="translate(120 160)" filter="url(#glow)">
    <rect width="220" height="120" rx="18" fill="#14182e" stroke="#1f2937"/>
    <rect x="260" width="220" height="120" rx="18" fill="#14182e" stroke="#1f2937"/>
    <rect x="520" width="220" height="120" rx="18" fill="#14182e" stroke="#1f2937"/>
    <rect x="780" width="220" height="120" rx="18" fill="#14182e" stroke="#1f2937"/>
    <rect x="1040" width="220" height="120" rx="18" fill="#14182e" stroke="#1f2937"/>
    <rect x="40" y="32" width="120" height="12" rx="6" fill="url(#bar)"/>
    <rect x="300" y="32" width="140" height="12" rx="6" fill="url(#bar)"/>
    <rect x="560" y="32" width="120" height="12" rx="6" fill="url(#bar)"/>
    <rect x="820" y="32" width="120" height="12" rx="6" fill="url(#bar)"/>
    <rect x="1080" y="32" width="120" height="12" rx="6" fill="url(#bar)"/>
  </g>
  <polyline points="80,540 180,480 260,500 320,420 440,360 520,380 600,340 680,420 820,360 940,420 1080,360 1180,400 1260,360 1340,380" fill="none" stroke="url(#line)" stroke-width="5" stroke-linecap="round" opacity="0.9"/>
  <polyline points="80,600 200,520 320,560 420,470 520,520 620,450 760,520 880,500 980,420 1120,500 1260,460 1340,520" fill="none" stroke="#6b7280" stroke-width="3" stroke-linecap="round" opacity="0.6"/>
  <circle cx="980" cy="420" r="9" fill="#a855f7" opacity="0.9"/>
  <circle cx="760" cy="520" r="9" fill="#22d3ee" opacity="0.9"/>
</svg>
